<?xml version="1.0" encoding="UTF-8" standalone="no"?>
<!DOCTYPE svg PUBLIC "-//W3C//DTD SVG 1.1//EN"
 "http://www.w3.org/Graphics/SVG/1.1/DTD/svg11.dtd">
<!-- Generated by graphviz version 2.43.0 (0)
 -->
<!-- Title: Graphical Class Hierarchy Pages: 1 -->
<svg width="2494pt" height="896pt"
 viewBox="0.00 0.00 2494.00 896.00" xmlns="http://www.w3.org/2000/svg" xmlns:xlink="http://www.w3.org/1999/xlink">
<g id="graph0" class="graph" transform="scale(1 1) rotate(0) translate(4 892)">
<title>Graphical Class Hierarchy</title>
<!-- Node0 -->
<g id="node1" class="node">
<title>Node0</title>
<g id="a_node1"><a xlink:href="d8/dfb/class_translator.html" target="_top" xlink:title="Abstract base class for all translatable text fragments.">
<polygon fill="white" stroke="#666666" points="65,-130 0,-130 0,-111 65,-111 65,-130"/>
<text text-anchor="middle" x="32.5" y="-118" font-family="Helvetica,sans-Serif" font-size="10.00">Translator</text>
</a>
</g>
</g>
<!-- Node1 -->
<g id="node2" class="node">
<title>Node1</title>
<g id="a_node2"><a xlink:href="db/d6c/class_translator_adapter_base.html" target="_top" xlink:title="Base of the translator adapter tree.">
<polygon fill="white" stroke="#666666" points="228,-241 101,-241 101,-222 228,-222 228,-241"/>
<text text-anchor="middle" x="164.5" y="-229" font-family="Helvetica,sans-Serif" font-size="10.00">TranslatorAdapterBase</text>
</a>
</g>
</g>
<!-- Node0&#45;&gt;Node1 -->
<g id="edge1" class="edge">
<title>Node0&#45;&gt;Node1</title>
<path fill="none" stroke="#63b8ff" d="M42.57,-139.3C53.58,-160.16 74.05,-193.41 101,-212.5 106.46,-216.37 112.72,-219.46 119.13,-221.94"/>
<polygon fill="#63b8ff" stroke="#63b8ff" points="45.58,-137.5 37.94,-130.17 39.34,-140.67 45.58,-137.5"/>
</g>
<!-- Node50 -->
<g id="node51" class="node">
<title>Node50</title>
<g id="a_node51"><a xlink:href="d2/d4c/class_translator_brazilian.html" target="_top" xlink:title=" ">
<polygon fill="white" stroke="#666666" points="218,-204 111,-204 111,-185 218,-185 218,-204"/>
<text text-anchor="middle" x="164.5" y="-192" font-family="Helvetica,sans-Serif" font-size="10.00">TranslatorBrazilian</text>
</a>
</g>
</g>
<!-- Node0&#45;&gt;Node50 -->
<g id="edge50" class="edge">
<title>Node0&#45;&gt;Node50</title>
<path fill="none" stroke="#63b8ff" d="M49.9,-136.97C62.81,-149.12 81.78,-165.26 101,-175.5 108.01,-179.23 115.85,-182.34 123.56,-184.9"/>
<polygon fill="#63b8ff" stroke="#63b8ff" points="52.32,-134.44 42.69,-130.01 47.45,-139.47 52.32,-134.44"/>
</g>
<!-- Node51 -->
<g id="node52" class="node">
<title>Node51</title>
<g id="a_node52"><a xlink:href="d9/d1b/class_translator_dutch.html" target="_top" xlink:title=" ">
<polygon fill="white" stroke="#666666" points="211,-167 118,-167 118,-148 211,-148 211,-167"/>
<text text-anchor="middle" x="164.5" y="-155" font-family="Helvetica,sans-Serif" font-size="10.00">TranslatorDutch</text>
</a>
</g>
</g>
<!-- Node0&#45;&gt;Node51 -->
<g id="edge51" class="edge">
<title>Node0&#45;&gt;Node51</title>
<path fill="none" stroke="#63b8ff" d="M75.32,-132.4C92.92,-137.41 113.13,-143.16 129.75,-147.9"/>
<polygon fill="#63b8ff" stroke="#63b8ff" points="75.88,-128.92 65.3,-129.55 73.96,-135.66 75.88,-128.92"/>
</g>
<!-- Node52 -->
<g id="node53" class="node">
<title>Node52</title>
<g id="a_node53"><a xlink:href="d6/d78/class_translator_english.html" target="_top" xlink:title=" ">
<polygon fill="white" stroke="#666666" points="214.5,-130 114.5,-130 114.5,-111 214.5,-111 214.5,-130"/>
<text text-anchor="middle" x="164.5" y="-118" font-family="Helvetica,sans-Serif" font-size="10.00">TranslatorEnglish</text>
</a>
</g>
</g>
<!-- Node0&#45;&gt;Node52 -->
<g id="edge52" class="edge">
<title>Node0&#45;&gt;Node52</title>
<path fill="none" stroke="#63b8ff" d="M75.37,-120.5C87.77,-120.5 101.47,-120.5 114.29,-120.5"/>
<polygon fill="#63b8ff" stroke="#63b8ff" points="75.3,-117 65.3,-120.5 75.3,-124 75.3,-117"/>
</g>
<!-- Node55 -->
<g id="node56" class="node">
<title>Node55</title>
<g id="a_node56"><a xlink:href="df/d75/class_translator_greek.html" target="_top" xlink:title=" ">
<polygon fill="white" stroke="#666666" points="211.5,-93 117.5,-93 117.5,-74 211.5,-74 211.5,-93"/>
<text text-anchor="middle" x="164.5" y="-81" font-family="Helvetica,sans-Serif" font-size="10.00">TranslatorGreek</text>
</a>
</g>
</g>
<!-- Node0&#45;&gt;Node55 -->
<g id="edge55" class="edge">
<title>Node0&#45;&gt;Node55</title>
<path fill="none" stroke="#63b8ff" d="M75.32,-108.6C92.92,-103.59 113.13,-97.84 129.75,-93.1"/>
<polygon fill="#63b8ff" stroke="#63b8ff" points="73.96,-105.34 65.3,-111.45 75.88,-112.08 73.96,-105.34"/>
</g>
<!-- Node56 -->
<g id="node57" class="node">
<title>Node56</title>
<g id="a_node57"><a xlink:href="dc/df2/class_translator_portuguese.html" target="_top" xlink:title=" ">
<polygon fill="white" stroke="#666666" points="224,-56 105,-56 105,-37 224,-37 224,-56"/>
<text text-anchor="middle" x="164.5" y="-44" font-family="Helvetica,sans-Serif" font-size="10.00">TranslatorPortuguese</text>
</a>
</g>
</g>
<!-- Node0&#45;&gt;Node56 -->
<g id="edge56" class="edge">
<title>Node0&#45;&gt;Node56</title>
<path fill="none" stroke="#63b8ff" d="M49.8,-103.63C62.66,-91.21 81.6,-74.76 101,-64.5 107.29,-61.17 114.27,-58.4 121.22,-56.1"/>
<polygon fill="#63b8ff" stroke="#63b8ff" points="47.26,-101.23 42.63,-110.76 52.19,-106.19 47.26,-101.23"/>
</g>
<!-- Node57 -->
<g id="node58" class="node">
<title>Node57</title>
<g id="a_node58"><a xlink:href="dc/d44/class_translator_spanish.html" target="_top" xlink:title=" ">
<polygon fill="white" stroke="#666666" points="216,-19 113,-19 113,0 216,0 216,-19"/>
<text text-anchor="middle" x="164.5" y="-7" font-family="Helvetica,sans-Serif" font-size="10.00">TranslatorSpanish</text>
</a>
</g>
</g>
<!-- Node0&#45;&gt;Node57 -->
<g id="edge57" class="edge">
<title>Node0&#45;&gt;Node57</title>
<path fill="none" stroke="#63b8ff" d="M42.3,-101.75C53.17,-80.61 73.63,-46.7 101,-27.5 105.9,-24.06 111.45,-21.28 117.17,-19.02"/>
<polygon fill="#63b8ff" stroke="#63b8ff" points="39.03,-100.46 37.75,-110.98 45.31,-103.56 39.03,-100.46"/>
</g>
<!-- Node2 -->
<g id="node3" class="node">
<title>Node2</title>
<g id="a_node3"><a xlink:href="db/d71/class_translator_adapter__1__9__6.html" target="_top" xlink:title=" ">
<polygon fill="white" stroke="#666666" points="401,-241 264,-241 264,-222 401,-222 401,-241"/>
<text text-anchor="middle" x="332.5" y="-229" font-family="Helvetica,sans-Serif" font-size="10.00">TranslatorAdapter_1_9_6</text>
</a>
</g>
</g>
<!-- Node1&#45;&gt;Node2 -->
<g id="edge2" class="edge">
<title>Node1&#45;&gt;Node2</title>
<path fill="none" stroke="#63b8ff" d="M238.49,-231.5C246.95,-231.5 255.56,-231.5 263.94,-231.5"/>
<polygon fill="#63b8ff" stroke="#63b8ff" points="238.26,-228 228.26,-231.5 238.26,-235 238.26,-228"/>
</g>
<!-- Node3 -->
<g id="node4" class="node">
<title>Node3</title>
<g id="a_node4"><a xlink:href="dd/dba/class_translator_adapter__1__9__5.html" target="_top" xlink:title=" ">
<polygon fill="white" stroke="#666666" points="574,-278 437,-278 437,-259 574,-259 574,-278"/>
<text text-anchor="middle" x="505.5" y="-266" font-family="Helvetica,sans-Serif" font-size="10.00">TranslatorAdapter_1_9_5</text>
</a>
</g>
</g>
<!-- Node2&#45;&gt;Node3 -->
<g id="edge3" class="edge">
<title>Node2&#45;&gt;Node3</title>
<path fill="none" stroke="#63b8ff" d="M387.35,-243.15C410.84,-248.23 438.04,-254.12 460.32,-258.94"/>
<polygon fill="#63b8ff" stroke="#63b8ff" points="388.05,-239.72 377.54,-241.03 386.57,-246.56 388.05,-239.72"/>
</g>
<!-- Node48 -->
<g id="node49" class="node">
<title>Node48</title>
<g id="a_node49"><a xlink:href="dd/d8a/class_translator_czech.html" target="_top" xlink:title=" ">
<polygon fill="white" stroke="#666666" points="552.5,-241 458.5,-241 458.5,-222 552.5,-222 552.5,-241"/>
<text text-anchor="middle" x="505.5" y="-229" font-family="Helvetica,sans-Serif" font-size="10.00">TranslatorCzech</text>
</a>
</g>
</g>
<!-- Node2&#45;&gt;Node48 -->
<g id="edge48" class="edge">
<title>Node2&#45;&gt;Node48</title>
<path fill="none" stroke="#63b8ff" d="M411.09,-231.5C427.28,-231.5 443.84,-231.5 458.44,-231.5"/>
<polygon fill="#63b8ff" stroke="#63b8ff" points="411.08,-228 401.08,-231.5 411.08,-235 411.08,-228"/>
</g>
<!-- Node49 -->
<g id="node50" class="node">
<title>Node49</title>
<g id="a_node50"><a xlink:href="d5/d5c/class_translator_swedish.html" target="_top" xlink:title=" ">
<polygon fill="white" stroke="#666666" points="558,-204 453,-204 453,-185 558,-185 558,-204"/>
<text text-anchor="middle" x="505.5" y="-192" font-family="Helvetica,sans-Serif" font-size="10.00">TranslatorSwedish</text>
</a>
</g>
</g>
<!-- Node2&#45;&gt;Node49 -->
<g id="edge49" class="edge">
<title>Node2&#45;&gt;Node49</title>
<path fill="none" stroke="#63b8ff" d="M387.35,-219.85C410.84,-214.77 438.04,-208.88 460.32,-204.06"/>
<polygon fill="#63b8ff" stroke="#63b8ff" points="386.57,-216.44 377.54,-221.97 388.05,-223.28 386.57,-216.44"/>
</g>
<!-- Node4 -->
<g id="node5" class="node">
<title>Node4</title>
<g id="a_node5"><a xlink:href="d0/d33/class_translator_adapter__1__9__4.html" target="_top" xlink:title=" ">
<polygon fill="white" stroke="#666666" points="747,-296 610,-296 610,-277 747,-277 747,-296"/>
<text text-anchor="middle" x="678.5" y="-284" font-family="Helvetica,sans-Serif" font-size="10.00">TranslatorAdapter_1_9_4</text>
</a>
</g>
</g>
<!-- Node3&#45;&gt;Node4 -->
<g id="edge4" class="edge">
<title>Node3&#45;&gt;Node4</title>
<path fill="none" stroke="#63b8ff" d="M584.1,-276.67C592.69,-277.57 601.39,-278.49 609.85,-279.38"/>
<polygon fill="#63b8ff" stroke="#63b8ff" points="584.4,-273.18 574.08,-275.61 583.66,-280.14 584.4,-273.18"/>
</g>
<!-- Node47 -->
<g id="node48" class="node">
<title>Node47</title>
<g id="a_node48"><a xlink:href="da/d1a/class_translator_french.html" target="_top" xlink:title=" ">
<polygon fill="white" stroke="#666666" points="727,-259 630,-259 630,-240 727,-240 727,-259"/>
<text text-anchor="middle" x="678.5" y="-247" font-family="Helvetica,sans-Serif" font-size="10.00">TranslatorFrench</text>
</a>
</g>
</g>
<!-- Node3&#45;&gt;Node47 -->
<g id="edge47" class="edge">
<title>Node3&#45;&gt;Node47</title>
<path fill="none" stroke="#63b8ff" d="M584.24,-259.86C599.81,-258.13 615.72,-256.36 629.9,-254.79"/>
<polygon fill="#63b8ff" stroke="#63b8ff" points="583.64,-256.41 574.08,-260.99 584.41,-263.36 583.64,-256.41"/>
</g>
<!-- Node5 -->
<g id="node6" class="node">
<title>Node5</title>
<g id="a_node6"><a xlink:href="d3/d2e/class_translator_adapter__1__9__2.html" target="_top" xlink:title=" ">
<polygon fill="white" stroke="#666666" points="920,-352 783,-352 783,-333 920,-333 920,-352"/>
<text text-anchor="middle" x="851.5" y="-340" font-family="Helvetica,sans-Serif" font-size="10.00">TranslatorAdapter_1_9_2</text>
</a>
</g>
</g>
<!-- Node4&#45;&gt;Node5 -->
<g id="edge5" class="edge">
<title>Node4&#45;&gt;Node5</title>
<path fill="none" stroke="#63b8ff" d="M714.45,-299.67C734.42,-307.03 759.98,-316.16 783,-323.5 793.32,-326.79 804.63,-330.09 814.98,-333"/>
<polygon fill="#63b8ff" stroke="#63b8ff" points="715.45,-296.31 704.85,-296.12 713.01,-302.87 715.45,-296.31"/>
</g>
<!-- Node44 -->
<g id="node45" class="node">
<title>Node44</title>
<g id="a_node45"><a xlink:href="da/dbb/class_translator_bulgarian.html" target="_top" xlink:title=" ">
<polygon fill="white" stroke="#666666" points="907,-315 796,-315 796,-296 907,-296 907,-315"/>
<text text-anchor="middle" x="851.5" y="-303" font-family="Helvetica,sans-Serif" font-size="10.00">TranslatorBulgarian</text>
</a>
</g>
</g>
<!-- Node4&#45;&gt;Node44 -->
<g id="edge44" class="edge">
<title>Node4&#45;&gt;Node44</title>
<path fill="none" stroke="#63b8ff" d="M757.4,-295.16C770.36,-296.6 783.54,-298.06 795.77,-299.42"/>
<polygon fill="#63b8ff" stroke="#63b8ff" points="757.41,-291.64 747.08,-294.01 756.64,-298.59 757.41,-291.64"/>
</g>
<!-- Node45 -->
<g id="node46" class="node">
<title>Node45</title>
<g id="a_node46"><a xlink:href="d6/db6/class_translator_chinese.html" target="_top" xlink:title=" ">
<polygon fill="white" stroke="#666666" points="903.5,-278 799.5,-278 799.5,-259 903.5,-259 903.5,-278"/>
<text text-anchor="middle" x="851.5" y="-266" font-family="Helvetica,sans-Serif" font-size="10.00">TranslatorChinese</text>
</a>
</g>
</g>
<!-- Node4&#45;&gt;Node45 -->
<g id="edge45" class="edge">
<title>Node4&#45;&gt;Node45</title>
<path fill="none" stroke="#63b8ff" d="M757.41,-278.3C771.69,-276.8 786.26,-275.26 799.49,-273.87"/>
<polygon fill="#63b8ff" stroke="#63b8ff" points="756.66,-274.86 747.08,-279.39 757.4,-281.82 756.66,-274.86"/>
</g>
<!-- Node46 -->
<g id="node47" class="node">
<title>Node46</title>
<g id="a_node47"><a xlink:href="d1/d8a/class_translator_hindi.html" target="_top" xlink:title=" ">
<polygon fill="white" stroke="#666666" points="896.5,-241 806.5,-241 806.5,-222 896.5,-222 896.5,-241"/>
<text text-anchor="middle" x="851.5" y="-229" font-family="Helvetica,sans-Serif" font-size="10.00">TranslatorHindi</text>
</a>
</g>
</g>
<!-- Node4&#45;&gt;Node46 -->
<g id="edge46" class="edge">
<title>Node4&#45;&gt;Node46</title>
<path fill="none" stroke="#63b8ff" d="M728.11,-274.01C734.52,-272.02 740.96,-269.83 747,-267.5 763.68,-261.05 766.27,-255.84 783,-249.5 791.39,-246.32 800.57,-243.48 809.39,-241.04"/>
<polygon fill="#63b8ff" stroke="#63b8ff" points="726.7,-270.78 718.11,-276.99 728.69,-277.49 726.7,-270.78"/>
</g>
<!-- Node6 -->
<g id="node7" class="node">
<title>Node6</title>
<g id="a_node7"><a xlink:href="de/dde/class_translator_adapter__1__8__19.html" target="_top" xlink:title=" ">
<polygon fill="white" stroke="#666666" points="1099,-352 956,-352 956,-333 1099,-333 1099,-352"/>
<text text-anchor="middle" x="1027.5" y="-340" font-family="Helvetica,sans-Serif" font-size="10.00">TranslatorAdapter_1_8_19</text>
</a>
</g>
</g>
<!-- Node5&#45;&gt;Node6 -->
<g id="edge6" class="edge">
<title>Node5&#45;&gt;Node6</title>
<path fill="none" stroke="#63b8ff" d="M930.47,-342.5C938.89,-342.5 947.42,-342.5 955.75,-342.5"/>
<polygon fill="#63b8ff" stroke="#63b8ff" points="930.27,-339 920.27,-342.5 930.27,-346 930.27,-339"/>
</g>
<!-- Node7 -->
<g id="node8" class="node">
<title>Node7</title>
<g id="a_node8"><a xlink:href="d4/d2e/class_translator_adapter__1__8__15.html" target="_top" xlink:title=" ">
<polygon fill="white" stroke="#666666" points="1278,-352 1135,-352 1135,-333 1278,-333 1278,-352"/>
<text text-anchor="middle" x="1206.5" y="-340" font-family="Helvetica,sans-Serif" font-size="10.00">TranslatorAdapter_1_8_15</text>
</a>
</g>
</g>
<!-- Node6&#45;&gt;Node7 -->
<g id="edge7" class="edge">
<title>Node6&#45;&gt;Node7</title>
<path fill="none" stroke="#63b8ff" d="M1109.49,-342.5C1117.97,-342.5 1126.54,-342.5 1134.89,-342.5"/>
<polygon fill="#63b8ff" stroke="#63b8ff" points="1109.22,-339 1099.22,-342.5 1109.22,-346 1109.22,-339"/>
</g>
<!-- Node8 -->
<g id="node9" class="node">
<title>Node8</title>
<g id="a_node9"><a xlink:href="de/d2f/class_translator_adapter__1__8__4.html" target="_top" xlink:title=" ">
<polygon fill="white" stroke="#666666" points="1459.5,-519 1322.5,-519 1322.5,-500 1459.5,-500 1459.5,-519"/>
<text text-anchor="middle" x="1391" y="-507" font-family="Helvetica,sans-Serif" font-size="10.00">TranslatorAdapter_1_8_4</text>
</a>
</g>
</g>
<!-- Node7&#45;&gt;Node8 -->
<g id="edge8" class="edge">
<title>Node7&#45;&gt;Node8</title>
<path fill="none" stroke="#63b8ff" d="M1215.89,-361.78C1230.81,-393.7 1265.04,-457.29 1314,-490.5 1319.74,-494.39 1326.21,-497.49 1332.89,-499.95"/>
<polygon fill="#63b8ff" stroke="#63b8ff" points="1218.89,-359.93 1211.58,-352.26 1212.52,-362.81 1218.89,-359.93"/>
</g>
<!-- Node35 -->
<g id="node36" class="node">
<title>Node35</title>
<g id="a_node36"><a xlink:href="dd/df6/class_translator_chinesetraditional.html" target="_top" xlink:title=" ">
<polygon fill="white" stroke="#666666" points="1468,-482 1314,-482 1314,-463 1468,-463 1468,-482"/>
<text text-anchor="middle" x="1391" y="-470" font-family="Helvetica,sans-Serif" font-size="10.00">TranslatorChinesetraditional</text>
</a>
</g>
</g>
<!-- Node7&#45;&gt;Node35 -->
<g id="edge35" class="edge">
<title>Node7&#45;&gt;Node35</title>
<path fill="none" stroke="#63b8ff" d="M1219.88,-360.77C1237.71,-385.63 1273.03,-429.74 1314,-453.5 1320.71,-457.39 1328.19,-460.49 1335.78,-462.96"/>
<polygon fill="#63b8ff" stroke="#63b8ff" points="1222.53,-358.45 1213.93,-352.26 1216.79,-362.46 1222.53,-358.45"/>
</g>
<!-- Node36 -->
<g id="node37" class="node">
<title>Node36</title>
<g id="a_node37"><a xlink:href="d6/d07/class_translator_german.html" target="_top" xlink:title=" ">
<polygon fill="white" stroke="#666666" points="1443,-445 1339,-445 1339,-426 1443,-426 1443,-445"/>
<text text-anchor="middle" x="1391" y="-433" font-family="Helvetica,sans-Serif" font-size="10.00">TranslatorGerman</text>
</a>
</g>
</g>
<!-- Node7&#45;&gt;Node36 -->
<g id="edge36" class="edge">
<title>Node7&#45;&gt;Node36</title>
<path fill="none" stroke="#63b8ff" d="M1226.32,-358.77C1246.65,-375.56 1280.63,-401.35 1314,-416.5 1322.42,-420.32 1331.73,-423.46 1340.86,-425.99"/>
<polygon fill="#63b8ff" stroke="#63b8ff" points="1228.39,-355.94 1218.48,-352.19 1223.89,-361.3 1228.39,-355.94"/>
</g>
<!-- Node37 -->
<g id="node38" class="node">
<title>Node37</title>
<g id="a_node38"><a xlink:href="db/d5f/class_translator_hungarian.html" target="_top" xlink:title=" ">
<polygon fill="white" stroke="#666666" points="1448.5,-408 1333.5,-408 1333.5,-389 1448.5,-389 1448.5,-408"/>
<text text-anchor="middle" x="1391" y="-396" font-family="Helvetica,sans-Serif" font-size="10.00">TranslatorHungarian</text>
</a>
</g>
</g>
<!-- Node7&#45;&gt;Node37 -->
<g id="edge37" class="edge">
<title>Node7&#45;&gt;Node37</title>
<path fill="none" stroke="#63b8ff" d="M1242.72,-355.62C1263.35,-363.09 1289.98,-372.34 1314,-379.5 1325.21,-382.84 1337.46,-386.08 1348.8,-388.91"/>
<polygon fill="#63b8ff" stroke="#63b8ff" points="1243.71,-352.26 1233.11,-352.12 1241.31,-358.84 1243.71,-352.26"/>
</g>
<!-- Node38 -->
<g id="node39" class="node">
<title>Node38</title>
<g id="a_node39"><a xlink:href="d2/df8/class_translator_italian.html" target="_top" xlink:title=" ">
<polygon fill="white" stroke="#666666" points="1438.5,-371 1343.5,-371 1343.5,-352 1438.5,-352 1438.5,-371"/>
<text text-anchor="middle" x="1391" y="-359" font-family="Helvetica,sans-Serif" font-size="10.00">TranslatorItalian</text>
</a>
</g>
</g>
<!-- Node7&#45;&gt;Node38 -->
<g id="edge38" class="edge">
<title>Node7&#45;&gt;Node38</title>
<path fill="none" stroke="#63b8ff" d="M1288.15,-350.9C1307.01,-352.86 1326.48,-354.89 1343.29,-356.64"/>
<polygon fill="#63b8ff" stroke="#63b8ff" points="1288.37,-347.4 1278.06,-349.85 1287.64,-354.36 1288.37,-347.4"/>
</g>
<!-- Node39 -->
<g id="node40" class="node">
<title>Node39</title>
<g id="a_node40"><a xlink:href="d1/d6a/class_translator_japanese.html" target="_top" xlink:title=" ">
<polygon fill="white" stroke="#666666" points="1445.5,-334 1336.5,-334 1336.5,-315 1445.5,-315 1445.5,-334"/>
<text text-anchor="middle" x="1391" y="-322" font-family="Helvetica,sans-Serif" font-size="10.00">TranslatorJapanese</text>
</a>
</g>
</g>
<!-- Node7&#45;&gt;Node39 -->
<g id="edge39" class="edge">
<title>Node7&#45;&gt;Node39</title>
<path fill="none" stroke="#63b8ff" d="M1288.14,-334.55C1304.45,-332.94 1321.22,-331.28 1336.33,-329.79"/>
<polygon fill="#63b8ff" stroke="#63b8ff" points="1287.67,-331.08 1278.06,-335.54 1288.35,-338.04 1287.67,-331.08"/>
</g>
<!-- Node40 -->
<g id="node41" class="node">
<title>Node40</title>
<g id="a_node41"><a xlink:href="db/dcc/class_translator_korean.html" target="_top" xlink:title=" ">
<polygon fill="white" stroke="#666666" points="1440,-297 1342,-297 1342,-278 1440,-278 1440,-297"/>
<text text-anchor="middle" x="1391" y="-285" font-family="Helvetica,sans-Serif" font-size="10.00">TranslatorKorean</text>
</a>
</g>
</g>
<!-- Node7&#45;&gt;Node40 -->
<g id="edge40" class="edge">
<title>Node7&#45;&gt;Node40</title>
<path fill="none" stroke="#63b8ff" d="M1242.27,-329.41C1262.94,-321.89 1289.78,-312.56 1314,-305.5 1324.41,-302.47 1335.74,-299.57 1346.39,-297.02"/>
<polygon fill="#63b8ff" stroke="#63b8ff" points="1240.84,-326.21 1232.66,-332.95 1243.25,-332.78 1240.84,-326.21"/>
</g>
<!-- Node41 -->
<g id="node42" class="node">
<title>Node41</title>
<g id="a_node42"><a xlink:href="da/d32/class_translator_romanian.html" target="_top" xlink:title=" ">
<polygon fill="white" stroke="#666666" points="1448,-260 1334,-260 1334,-241 1448,-241 1448,-260"/>
<text text-anchor="middle" x="1391" y="-248" font-family="Helvetica,sans-Serif" font-size="10.00">TranslatorRomanian</text>
</a>
</g>
</g>
<!-- Node7&#45;&gt;Node41 -->
<g id="edge41" class="edge">
<title>Node7&#45;&gt;Node41</title>
<path fill="none" stroke="#63b8ff" d="M1226.28,-326.14C1246.58,-309.29 1280.54,-283.44 1314,-268.5 1321.55,-265.13 1329.82,-262.34 1338.04,-260.05"/>
<polygon fill="#63b8ff" stroke="#63b8ff" points="1223.83,-323.63 1218.46,-332.76 1228.35,-328.97 1223.83,-323.63"/>
</g>
<!-- Node42 -->
<g id="node43" class="node">
<title>Node42</title>
<g id="a_node43"><a xlink:href="d0/dab/class_translator_russian.html" target="_top" xlink:title=" ">
<polygon fill="white" stroke="#666666" points="1442.5,-223 1339.5,-223 1339.5,-204 1442.5,-204 1442.5,-223"/>
<text text-anchor="middle" x="1391" y="-211" font-family="Helvetica,sans-Serif" font-size="10.00">TranslatorRussian</text>
</a>
</g>
</g>
<!-- Node7&#45;&gt;Node42 -->
<g id="edge42" class="edge">
<title>Node7&#45;&gt;Node42</title>
<path fill="none" stroke="#63b8ff" d="M1219.84,-324.16C1237.62,-299.21 1272.88,-255.01 1314,-231.5 1321.77,-227.06 1330.58,-223.71 1339.39,-221.19"/>
<polygon fill="#63b8ff" stroke="#63b8ff" points="1216.74,-322.49 1213.9,-332.69 1222.49,-326.48 1216.74,-322.49"/>
</g>
<!-- Node43 -->
<g id="node44" class="node">
<title>Node43</title>
<g id="a_node44"><a xlink:href="d2/d53/class_translator_slovak.html" target="_top" xlink:title=" ">
<polygon fill="white" stroke="#666666" points="1440,-186 1342,-186 1342,-167 1440,-167 1440,-186"/>
<text text-anchor="middle" x="1391" y="-174" font-family="Helvetica,sans-Serif" font-size="10.00">TranslatorSlovak</text>
</a>
</g>
</g>
<!-- Node7&#45;&gt;Node43 -->
<g id="edge43" class="edge">
<title>Node7&#45;&gt;Node43</title>
<path fill="none" stroke="#63b8ff" d="M1215.66,-323.57C1230.4,-291.69 1264.62,-227.55 1314,-194.5 1322.23,-188.99 1331.94,-185.17 1341.63,-182.5"/>
<polygon fill="#63b8ff" stroke="#63b8ff" points="1212.46,-322.15 1211.56,-332.7 1218.84,-325.01 1212.46,-322.15"/>
</g>
<!-- Node9 -->
<g id="node10" class="node">
<title>Node9</title>
<g id="a_node10"><a xlink:href="d2/d75/class_translator_adapter__1__8__2.html" target="_top" xlink:title=" ">
<polygon fill="white" stroke="#666666" points="1641,-574 1504,-574 1504,-555 1641,-555 1641,-574"/>
<text text-anchor="middle" x="1572.5" y="-562" font-family="Helvetica,sans-Serif" font-size="10.00">TranslatorAdapter_1_8_2</text>
</a>
</g>
</g>
<!-- Node8&#45;&gt;Node9 -->
<g id="edge9" class="edge">
<title>Node8&#45;&gt;Node9</title>
<path fill="none" stroke="#63b8ff" d="M1430.67,-522.32C1452.2,-529.35 1479.52,-538.12 1504,-545.5 1514.61,-548.7 1526.2,-552.02 1536.74,-554.98"/>
<polygon fill="#63b8ff" stroke="#63b8ff" points="1431.51,-518.91 1420.92,-519.12 1429.33,-525.56 1431.51,-518.91"/>
</g>
<!-- Node32 -->
<g id="node33" class="node">
<title>Node32</title>
<g id="a_node33"><a xlink:href="d2/d07/class_translator_esperanto.html" target="_top" xlink:title=" ">
<polygon fill="white" stroke="#666666" points="1629,-537 1516,-537 1516,-518 1629,-518 1629,-537"/>
<text text-anchor="middle" x="1572.5" y="-525" font-family="Helvetica,sans-Serif" font-size="10.00">TranslatorEsperanto</text>
</a>
</g>
</g>
<!-- Node8&#45;&gt;Node32 -->
<g id="edge32" class="edge">
<title>Node8&#45;&gt;Node32</title>
<path fill="none" stroke="#63b8ff" d="M1469.73,-517.3C1485.29,-518.85 1501.33,-520.46 1515.95,-521.93"/>
<polygon fill="#63b8ff" stroke="#63b8ff" points="1469.9,-513.79 1459.61,-516.28 1469.21,-520.76 1469.9,-513.79"/>
</g>
<!-- Node33 -->
<g id="node34" class="node">
<title>Node33</title>
<g id="a_node34"><a xlink:href="d8/d83/class_translator_latvian.html" target="_top" xlink:title=" ">
<polygon fill="white" stroke="#666666" points="1623,-500 1522,-500 1522,-481 1623,-481 1623,-500"/>
<text text-anchor="middle" x="1572.5" y="-488" font-family="Helvetica,sans-Serif" font-size="10.00">TranslatorLatvian</text>
</a>
</g>
</g>
<!-- Node8&#45;&gt;Node33 -->
<g id="edge33" class="edge">
<title>Node8&#45;&gt;Node33</title>
<path fill="none" stroke="#63b8ff" d="M1469.89,-501.26C1487.52,-499.39 1505.78,-497.46 1521.86,-495.75"/>
<polygon fill="#63b8ff" stroke="#63b8ff" points="1469.18,-497.81 1459.61,-502.34 1469.92,-504.77 1469.18,-497.81"/>
</g>
<!-- Node34 -->
<g id="node35" class="node">
<title>Node34</title>
<g id="a_node35"><a xlink:href="d1/d56/class_translator_ukrainian.html" target="_top" xlink:title=" ">
<polygon fill="white" stroke="#666666" points="1628.5,-463 1516.5,-463 1516.5,-444 1628.5,-444 1628.5,-463"/>
<text text-anchor="middle" x="1572.5" y="-451" font-family="Helvetica,sans-Serif" font-size="10.00">TranslatorUkrainian</text>
</a>
</g>
</g>
<!-- Node8&#45;&gt;Node34 -->
<g id="edge34" class="edge">
<title>Node8&#45;&gt;Node34</title>
<path fill="none" stroke="#63b8ff" d="M1447.94,-497.16C1454.77,-495.17 1461.6,-492.95 1468,-490.5 1484.9,-484.04 1487.15,-478.09 1504,-471.5 1512.13,-468.32 1521.03,-465.5 1529.62,-463.1"/>
<polygon fill="#63b8ff" stroke="#63b8ff" points="1446.68,-493.87 1437.96,-499.9 1448.54,-500.62 1446.68,-493.87"/>
</g>
<!-- Node10 -->
<g id="node11" class="node">
<title>Node10</title>
<g id="a_node11"><a xlink:href="de/d49/class_translator_adapter__1__8__0.html" target="_top" xlink:title="Adapter class for languages that only contain translations up to version 1.8.0.">
<polygon fill="white" stroke="#666666" points="1814,-611 1677,-611 1677,-592 1814,-592 1814,-611"/>
<text text-anchor="middle" x="1745.5" y="-599" font-family="Helvetica,sans-Serif" font-size="10.00">TranslatorAdapter_1_8_0</text>
</a>
</g>
</g>
<!-- Node9&#45;&gt;Node10 -->
<g id="edge10" class="edge">
<title>Node9&#45;&gt;Node10</title>
<path fill="none" stroke="#63b8ff" d="M1627.35,-576.15C1650.84,-581.23 1678.04,-587.12 1700.32,-591.94"/>
<polygon fill="#63b8ff" stroke="#63b8ff" points="1628.05,-572.72 1617.54,-574.03 1626.57,-579.56 1628.05,-572.72"/>
</g>
<!-- Node30 -->
<g id="node31" class="node">
<title>Node30</title>
<g id="a_node31"><a xlink:href="d9/d82/class_translator_croatian.html" target="_top" xlink:title=" ">
<polygon fill="white" stroke="#666666" points="1798.5,-574 1692.5,-574 1692.5,-555 1798.5,-555 1798.5,-574"/>
<text text-anchor="middle" x="1745.5" y="-562" font-family="Helvetica,sans-Serif" font-size="10.00">TranslatorCroatian</text>
</a>
</g>
</g>
<!-- Node9&#45;&gt;Node30 -->
<g id="edge30" class="edge">
<title>Node9&#45;&gt;Node30</title>
<path fill="none" stroke="#63b8ff" d="M1651.19,-564.5C1665.16,-564.5 1679.41,-564.5 1692.44,-564.5"/>
<polygon fill="#63b8ff" stroke="#63b8ff" points="1651.08,-561 1641.08,-564.5 1651.08,-568 1651.08,-561"/>
</g>
<!-- Node31 -->
<g id="node32" class="node">
<title>Node31</title>
<g id="a_node32"><a xlink:href="de/d82/class_translator_polish.html" target="_top" xlink:title=" ">
<polygon fill="white" stroke="#666666" points="1792.5,-537 1698.5,-537 1698.5,-518 1792.5,-518 1792.5,-537"/>
<text text-anchor="middle" x="1745.5" y="-525" font-family="Helvetica,sans-Serif" font-size="10.00">TranslatorPolish</text>
</a>
</g>
</g>
<!-- Node9&#45;&gt;Node31 -->
<g id="edge31" class="edge">
<title>Node9&#45;&gt;Node31</title>
<path fill="none" stroke="#63b8ff" d="M1627.35,-552.85C1650.84,-547.77 1678.04,-541.88 1700.32,-537.06"/>
<polygon fill="#63b8ff" stroke="#63b8ff" points="1626.57,-549.44 1617.54,-554.97 1628.05,-556.28 1626.57,-549.44"/>
</g>
<!-- Node11 -->
<g id="node12" class="node">
<title>Node11</title>
<g id="a_node12"><a xlink:href="da/d24/class_translator_adapter__1__7__5.html" target="_top" xlink:title="Adapter class for languages that only contain translations up to version 1.7.5.">
<polygon fill="white" stroke="#666666" points="1987,-685 1850,-685 1850,-666 1987,-666 1987,-685"/>
<text text-anchor="middle" x="1918.5" y="-673" font-family="Helvetica,sans-Serif" font-size="10.00">TranslatorAdapter_1_7_5</text>
</a>
</g>
</g>
<!-- Node10&#45;&gt;Node11 -->
<g id="edge11" class="edge">
<title>Node10&#45;&gt;Node11</title>
<path fill="none" stroke="#63b8ff" d="M1770.82,-616.34C1791.35,-628.4 1821.83,-645.2 1850,-656.5 1858.93,-660.08 1868.77,-663.26 1878.12,-665.95"/>
<polygon fill="#63b8ff" stroke="#63b8ff" points="1772.51,-613.27 1762.13,-611.17 1768.93,-619.29 1772.51,-613.27"/>
</g>
<!-- Node26 -->
<g id="node27" class="node">
<title>Node26</title>
<g id="a_node27"><a xlink:href="da/db8/class_translator_armenian.html" target="_top" xlink:title=" ">
<polygon fill="white" stroke="#666666" points="1974.5,-648 1862.5,-648 1862.5,-629 1974.5,-629 1974.5,-648"/>
<text text-anchor="middle" x="1918.5" y="-636" font-family="Helvetica,sans-Serif" font-size="10.00">TranslatorArmenian</text>
</a>
</g>
</g>
<!-- Node10&#45;&gt;Node26 -->
<g id="edge26" class="edge">
<title>Node10&#45;&gt;Node26</title>
<path fill="none" stroke="#63b8ff" d="M1800.35,-613.15C1823.84,-618.23 1851.04,-624.12 1873.32,-628.94"/>
<polygon fill="#63b8ff" stroke="#63b8ff" points="1801.05,-609.72 1790.54,-611.03 1799.57,-616.56 1801.05,-609.72"/>
</g>
<!-- Node27 -->
<g id="node28" class="node">
<title>Node27</title>
<g id="a_node28"><a xlink:href="d9/dc1/class_translator_catalan.html" target="_top" xlink:title=" ">
<polygon fill="white" stroke="#666666" points="1969.5,-611 1867.5,-611 1867.5,-592 1969.5,-592 1969.5,-611"/>
<text text-anchor="middle" x="1918.5" y="-599" font-family="Helvetica,sans-Serif" font-size="10.00">TranslatorCatalan</text>
</a>
</g>
</g>
<!-- Node10&#45;&gt;Node27 -->
<g id="edge27" class="edge">
<title>Node10&#45;&gt;Node27</title>
<path fill="none" stroke="#63b8ff" d="M1824.15,-601.5C1838.8,-601.5 1853.76,-601.5 1867.28,-601.5"/>
<polygon fill="#63b8ff" stroke="#63b8ff" points="1824.08,-598 1814.08,-601.5 1824.08,-605 1824.08,-598"/>
</g>
<!-- Node28 -->
<g id="node29" class="node">
<title>Node28</title>
<g id="a_node29"><a xlink:href="d7/d21/class_translator_danish.html" target="_top" xlink:title=" ">
<polygon fill="white" stroke="#666666" points="1967.5,-574 1869.5,-574 1869.5,-555 1967.5,-555 1967.5,-574"/>
<text text-anchor="middle" x="1918.5" y="-562" font-family="Helvetica,sans-Serif" font-size="10.00">TranslatorDanish</text>
</a>
</g>
</g>
<!-- Node10&#45;&gt;Node28 -->
<g id="edge28" class="edge">
<title>Node10&#45;&gt;Node28</title>
<path fill="none" stroke="#63b8ff" d="M1800.35,-589.85C1823.84,-584.77 1851.04,-578.88 1873.32,-574.06"/>
<polygon fill="#63b8ff" stroke="#63b8ff" points="1799.57,-586.44 1790.54,-591.97 1801.05,-593.28 1799.57,-586.44"/>
</g>
<!-- Node29 -->
<g id="node30" class="node">
<title>Node29</title>
<g id="a_node30"><a xlink:href="df/dc8/class_translator_indonesian.html" target="_top" xlink:title=" ">
<polygon fill="white" stroke="#666666" points="1977.5,-537 1859.5,-537 1859.5,-518 1977.5,-518 1977.5,-537"/>
<text text-anchor="middle" x="1918.5" y="-525" font-family="Helvetica,sans-Serif" font-size="10.00">TranslatorIndonesian</text>
</a>
</g>
</g>
<!-- Node10&#45;&gt;Node29 -->
<g id="edge29" class="edge">
<title>Node10&#45;&gt;Node29</title>
<path fill="none" stroke="#63b8ff" d="M1802.42,-588.32C1806.44,-586.6 1810.35,-584.67 1814,-582.5 1833.72,-570.77 1830.2,-557.1 1850,-545.5 1855.86,-542.07 1862.39,-539.28 1869.01,-537.01"/>
<polygon fill="#63b8ff" stroke="#63b8ff" points="1800.97,-585.13 1792.86,-591.95 1803.46,-591.67 1800.97,-585.13"/>
</g>
<!-- Node12 -->
<g id="node13" class="node">
<title>Node12</title>
<g id="a_node13"><a xlink:href="d3/da1/class_translator_adapter__1__6__0.html" target="_top" xlink:title="Adapter class for languages that only contain translations up to version 1.6.0.">
<polygon fill="white" stroke="#666666" points="2160,-722 2023,-722 2023,-703 2160,-703 2160,-722"/>
<text text-anchor="middle" x="2091.5" y="-710" font-family="Helvetica,sans-Serif" font-size="10.00">TranslatorAdapter_1_6_0</text>
</a>
</g>
</g>
<!-- Node11&#45;&gt;Node12 -->
<g id="edge12" class="edge">
<title>Node11&#45;&gt;Node12</title>
<path fill="none" stroke="#63b8ff" d="M1973.35,-687.15C1996.84,-692.23 2024.04,-698.12 2046.32,-702.94"/>
<polygon fill="#63b8ff" stroke="#63b8ff" points="1974.05,-683.72 1963.54,-685.03 1972.57,-690.56 1974.05,-683.72"/>
</g>
<!-- Node24 -->
<g id="node25" class="node">
<title>Node24</title>
<g id="a_node25"><a xlink:href="d5/d43/class_translator_persian.html" target="_top" xlink:title=" ">
<polygon fill="white" stroke="#666666" points="2142,-685 2041,-685 2041,-666 2142,-666 2142,-685"/>
<text text-anchor="middle" x="2091.5" y="-673" font-family="Helvetica,sans-Serif" font-size="10.00">TranslatorPersian</text>
</a>
</g>
</g>
<!-- Node11&#45;&gt;Node24 -->
<g id="edge24" class="edge">
<title>Node11&#45;&gt;Node24</title>
<path fill="none" stroke="#63b8ff" d="M1997.26,-675.5C2012.06,-675.5 2027.18,-675.5 2040.81,-675.5"/>
<polygon fill="#63b8ff" stroke="#63b8ff" points="1997.08,-672 1987.08,-675.5 1997.08,-679 1997.08,-672"/>
</g>
<!-- Node25 -->
<g id="node26" class="node">
<title>Node25</title>
<g id="a_node26"><a xlink:href="dd/d80/class_translator_turkish.html" target="_top" xlink:title=" ">
<polygon fill="white" stroke="#666666" points="2141,-648 2042,-648 2042,-629 2141,-629 2141,-648"/>
<text text-anchor="middle" x="2091.5" y="-636" font-family="Helvetica,sans-Serif" font-size="10.00">TranslatorTurkish</text>
</a>
</g>
</g>
<!-- Node11&#45;&gt;Node25 -->
<g id="edge25" class="edge">
<title>Node11&#45;&gt;Node25</title>
<path fill="none" stroke="#63b8ff" d="M1973.35,-663.85C1996.84,-658.77 2024.04,-652.88 2046.32,-648.06"/>
<polygon fill="#63b8ff" stroke="#63b8ff" points="1972.57,-660.44 1963.54,-665.97 1974.05,-667.28 1972.57,-660.44"/>
</g>
<!-- Node13 -->
<g id="node14" class="node">
<title>Node13</title>
<g id="a_node14"><a xlink:href="d4/d2b/class_translator_adapter__1__4__6.html" target="_top" xlink:title="Adapter class for languages that only contain translations up to version 1.4.6.">
<polygon fill="white" stroke="#666666" points="2333,-833 2196,-833 2196,-814 2333,-814 2333,-833"/>
<text text-anchor="middle" x="2264.5" y="-821" font-family="Helvetica,sans-Serif" font-size="10.00">TranslatorAdapter_1_4_6</text>
</a>
</g>
</g>
<!-- Node12&#45;&gt;Node13 -->
<g id="edge13" class="edge">
<title>Node12&#45;&gt;Node13</title>
<path fill="none" stroke="#63b8ff" d="M2107.01,-729.8C2125.54,-750.78 2159.59,-785.79 2196,-805.5 2202.29,-808.91 2209.27,-811.7 2216.28,-813.98"/>
<polygon fill="#63b8ff" stroke="#63b8ff" points="2109.46,-727.28 2100.27,-722 2104.17,-731.86 2109.46,-727.28"/>
</g>
<!-- Node18 -->
<g id="node19" class="node">
<title>Node18</title>
<g id="a_node19"><a xlink:href="d3/d65/class_translator_afrikaans.html" target="_top" xlink:title=" ">
<polygon fill="white" stroke="#666666" points="2319.5,-796 2209.5,-796 2209.5,-777 2319.5,-777 2319.5,-796"/>
<text text-anchor="middle" x="2264.5" y="-784" font-family="Helvetica,sans-Serif" font-size="10.00">TranslatorAfrikaans</text>
</a>
</g>
</g>
<!-- Node12&#45;&gt;Node18 -->
<g id="edge18" class="edge">
<title>Node12&#45;&gt;Node18</title>
<path fill="none" stroke="#63b8ff" d="M2116.03,-727.31C2136.52,-739.7 2167.35,-757.11 2196,-768.5 2204.11,-771.73 2213,-774.56 2221.59,-776.97"/>
<polygon fill="#63b8ff" stroke="#63b8ff" points="2117.74,-724.26 2107.39,-722.01 2114.08,-730.22 2117.74,-724.26"/>
</g>
<!-- Node19 -->
<g id="node20" class="node">
<title>Node19</title>
<g id="a_node20"><a xlink:href="de/df7/class_translator_finnish.html" target="_top" xlink:title=" ">
<polygon fill="white" stroke="#666666" points="2314,-759 2215,-759 2215,-740 2314,-740 2314,-759"/>
<text text-anchor="middle" x="2264.5" y="-747" font-family="Helvetica,sans-Serif" font-size="10.00">TranslatorFinnish</text>
</a>
</g>
</g>
<!-- Node12&#45;&gt;Node19 -->
<g id="edge19" class="edge">
<title>Node12&#45;&gt;Node19</title>
<path fill="none" stroke="#63b8ff" d="M2146.35,-724.15C2169.84,-729.23 2197.04,-735.12 2219.32,-739.94"/>
<polygon fill="#63b8ff" stroke="#63b8ff" points="2147.05,-720.72 2136.54,-722.03 2145.57,-727.56 2147.05,-720.72"/>
</g>
<!-- Node20 -->
<g id="node21" class="node">
<title>Node20</title>
<g id="a_node21"><a xlink:href="d9/ddf/class_translator_macedonian.html" target="_top" xlink:title=" ">
<polygon fill="white" stroke="#666666" points="2326.5,-722 2202.5,-722 2202.5,-703 2326.5,-703 2326.5,-722"/>
<text text-anchor="middle" x="2264.5" y="-710" font-family="Helvetica,sans-Serif" font-size="10.00">TranslatorMacedonian</text>
</a>
</g>
</g>
<!-- Node12&#45;&gt;Node20 -->
<g id="edge20" class="edge">
<title>Node12&#45;&gt;Node20</title>
<path fill="none" stroke="#63b8ff" d="M2170.28,-712.5C2181,-712.5 2191.88,-712.5 2202.24,-712.5"/>
<polygon fill="#63b8ff" stroke="#63b8ff" points="2170.08,-709 2160.08,-712.5 2170.08,-716 2170.08,-709"/>
</g>
<!-- Node21 -->
<g id="node22" class="node">
<title>Node21</title>
<g id="a_node22"><a xlink:href="d5/d0a/class_translator_serbian.html" target="_top" xlink:title=" ">
<polygon fill="white" stroke="#666666" points="2315,-685 2214,-685 2214,-666 2315,-666 2315,-685"/>
<text text-anchor="middle" x="2264.5" y="-673" font-family="Helvetica,sans-Serif" font-size="10.00">TranslatorSerbian</text>
</a>
</g>
</g>
<!-- Node12&#45;&gt;Node21 -->
<g id="edge21" class="edge">
<title>Node12&#45;&gt;Node21</title>
<path fill="none" stroke="#63b8ff" d="M2146.35,-700.85C2169.84,-695.77 2197.04,-689.88 2219.32,-685.06"/>
<polygon fill="#63b8ff" stroke="#63b8ff" points="2145.57,-697.44 2136.54,-702.97 2147.05,-704.28 2145.57,-697.44"/>
</g>
<!-- Node22 -->
<g id="node23" class="node">
<title>Node22</title>
<g id="a_node23"><a xlink:href="dc/d03/class_translator_serbian_cyrillic.html" target="_top" xlink:title=" ">
<polygon fill="white" stroke="#666666" points="2332,-648 2197,-648 2197,-629 2332,-629 2332,-648"/>
<text text-anchor="middle" x="2264.5" y="-636" font-family="Helvetica,sans-Serif" font-size="10.00">TranslatorSerbianCyrillic</text>
</a>
</g>
</g>
<!-- Node12&#45;&gt;Node22 -->
<g id="edge22" class="edge">
<title>Node12&#45;&gt;Node22</title>
<path fill="none" stroke="#63b8ff" d="M2148.42,-699.32C2152.44,-697.6 2156.35,-695.67 2160,-693.5 2179.72,-681.77 2176.2,-668.1 2196,-656.5 2201.86,-653.07 2208.39,-650.28 2215.01,-648.01"/>
<polygon fill="#63b8ff" stroke="#63b8ff" points="2146.97,-696.13 2138.86,-702.95 2149.46,-702.67 2146.97,-696.13"/>
</g>
<!-- Node23 -->
<g id="node24" class="node">
<title>Node23</title>
<g id="a_node24"><a xlink:href="df/d20/class_translator_vietnamese.html" target="_top" xlink:title=" ">
<polygon fill="white" stroke="#666666" points="2326,-611 2203,-611 2203,-592 2326,-592 2326,-611"/>
<text text-anchor="middle" x="2264.5" y="-599" font-family="Helvetica,sans-Serif" font-size="10.00">TranslatorVietnamese</text>
</a>
</g>
</g>
<!-- Node12&#45;&gt;Node23 -->
<g id="edge23" class="edge">
<title>Node12&#45;&gt;Node23</title>
<path fill="none" stroke="#63b8ff" d="M2153.48,-698.18C2155.77,-696.76 2157.96,-695.21 2160,-693.5 2188.06,-670.04 2167.78,-642.76 2196,-619.5 2200.12,-616.11 2204.81,-613.35 2209.77,-611.1"/>
<polygon fill="#63b8ff" stroke="#63b8ff" points="2151.48,-695.27 2144.21,-702.97 2154.7,-701.49 2151.48,-695.27"/>
</g>
<!-- Node14 -->
<g id="node15" class="node">
<title>Node14</title>
<g id="a_node15"><a xlink:href="d3/de9/class_translator_arabic.html" target="_top" xlink:title=" ">
<polygon fill="white" stroke="#666666" points="2475,-888 2380,-888 2380,-869 2475,-869 2475,-888"/>
<text text-anchor="middle" x="2427.5" y="-876" font-family="Helvetica,sans-Serif" font-size="10.00">TranslatorArabic</text>
</a>
</g>
</g>
<!-- Node13&#45;&gt;Node14 -->
<g id="edge14" class="edge">
<title>Node13&#45;&gt;Node14</title>
<path fill="none" stroke="#63b8ff" d="M2300.94,-836.57C2320.87,-843.81 2346.25,-852.88 2369,-860.5 2377.43,-863.33 2386.6,-866.26 2395.09,-868.92"/>
<polygon fill="#63b8ff" stroke="#63b8ff" points="2301.94,-833.2 2291.35,-833.06 2299.54,-839.78 2301.94,-833.2"/>
</g>
<!-- Node15 -->
<g id="node16" class="node">
<title>Node15</title>
<g id="a_node16"><a xlink:href="dc/d53/class_translator_lithuanian.html" target="_top" xlink:title=" ">
<polygon fill="white" stroke="#666666" points="2485.5,-851 2369.5,-851 2369.5,-832 2485.5,-832 2485.5,-851"/>
<text text-anchor="middle" x="2427.5" y="-839" font-family="Helvetica,sans-Serif" font-size="10.00">TranslatorLithuanian</text>
</a>
</g>
</g>
<!-- Node13&#45;&gt;Node15 -->
<g id="edge15" class="edge">
<title>Node13&#45;&gt;Node15</title>
<path fill="none" stroke="#63b8ff" d="M2343.53,-832.22C2352.27,-833.2 2361.05,-834.18 2369.46,-835.12"/>
<polygon fill="#63b8ff" stroke="#63b8ff" points="2343.64,-828.71 2333.31,-831.08 2342.86,-835.67 2343.64,-828.71"/>
</g>
<!-- Node16 -->
<g id="node17" class="node">
<title>Node16</title>
<g id="a_node17"><a xlink:href="dd/d38/class_translator_norwegian.html" target="_top" xlink:title=" ">
<polygon fill="white" stroke="#666666" points="2486,-814 2369,-814 2369,-795 2486,-795 2486,-814"/>
<text text-anchor="middle" x="2427.5" y="-802" font-family="Helvetica,sans-Serif" font-size="10.00">TranslatorNorwegian</text>
</a>
</g>
</g>
<!-- Node13&#45;&gt;Node16 -->
<g id="edge16" class="edge">
<title>Node13&#45;&gt;Node16</title>
<path fill="none" stroke="#63b8ff" d="M2343.38,-814.31C2352,-813.29 2360.66,-812.27 2368.96,-811.29"/>
<polygon fill="#63b8ff" stroke="#63b8ff" points="2342.83,-810.85 2333.31,-815.5 2343.65,-817.8 2342.83,-810.85"/>
</g>
<!-- Node17 -->
<g id="node18" class="node">
<title>Node17</title>
<g id="a_node18"><a xlink:href="dd/d0b/class_translator_slovene.html" target="_top" xlink:title=" ">
<polygon fill="white" stroke="#666666" points="2479.5,-777 2375.5,-777 2375.5,-758 2479.5,-758 2479.5,-777"/>
<text text-anchor="middle" x="2427.5" y="-765" font-family="Helvetica,sans-Serif" font-size="10.00">TranslatorSlovene</text>
</a>
</g>
</g>
<!-- Node13&#45;&gt;Node17 -->
<g id="edge17" class="edge">
<title>Node13&#45;&gt;Node17</title>
<path fill="none" stroke="#63b8ff" d="M2317.12,-811.03C2322.54,-809.34 2327.92,-807.49 2333,-805.5 2349.85,-798.91 2352.35,-793.58 2369,-786.5 2377.13,-783.04 2386.11,-779.81 2394.51,-777.02"/>
<polygon fill="#63b8ff" stroke="#63b8ff" points="2315.98,-807.71 2307.38,-813.9 2317.96,-814.43 2315.98,-807.71"/>
</g>
<!-- Node53 -->
<g id="node54" class="node">
<title>Node53</title>
<g id="a_node54"><a xlink:href="d0/d16/class_translator_japanese_en.html" target="_top" xlink:title=" ">
<polygon fill="white" stroke="#666666" points="393,-149 272,-149 272,-130 393,-130 393,-149"/>
<text text-anchor="middle" x="332.5" y="-137" font-family="Helvetica,sans-Serif" font-size="10.00">TranslatorJapaneseEn</text>
</a>
</g>
</g>
<!-- Node52&#45;&gt;Node53 -->
<g id="edge53" class="edge">
<title>Node52&#45;&gt;Node53</title>
<path fill="none" stroke="#63b8ff" d="M225.15,-127.33C240.31,-129.06 256.6,-130.93 271.77,-132.66"/>
<polygon fill="#63b8ff" stroke="#63b8ff" points="225.19,-123.81 214.86,-126.15 224.39,-130.76 225.19,-123.81"/>
</g>
<!-- Node54 -->
<g id="node55" class="node">
<title>Node54</title>
<g id="a_node55"><a xlink:href="d0/d3a/class_translator_korean_en.html" target="_top" xlink:title=" ">
<polygon fill="white" stroke="#666666" points="387.5,-112 277.5,-112 277.5,-93 387.5,-93 387.5,-112"/>
<text text-anchor="middle" x="332.5" y="-100" font-family="Helvetica,sans-Serif" font-size="10.00">TranslatorKoreanEn</text>
</a>
</g>
</g>
<!-- Node52&#45;&gt;Node54 -->
<g id="edge54" class="edge">
<title>Node52&#45;&gt;Node54</title>
<path fill="none" stroke="#63b8ff" d="M225.25,-114.02C242.28,-112.17 260.73,-110.17 277.41,-108.37"/>
<polygon fill="#63b8ff" stroke="#63b8ff" points="224.42,-110.59 214.86,-115.15 225.18,-117.55 224.42,-110.59"/>
</g>
</g>
</svg>
